<svg width="105" height="57" viewBox="0 0 105 57" fill="none" xmlns="http://www.w3.org/2000/svg">
<path d="M104.2 16.0378C69.4654 19.0886 34.7347 22.1432 0 25.1939C4.26627 18.4214 8.53255 12.0274 12.7949 6.00784C38.997 8.30955 65.1991 10.6113 91.4012 12.9169C95.6675 14.333 99.9338 15.3746 104.196 16.0417L104.2 16.0378Z" fill="#FAFAFA"/>
<path d="M7.07281 47.2355L7.05914 48.8898L7.10016 53.258V53.5724H2.9234L2.97125 48.4933L2.91656 44.2414H10.1627C10.4908 44.2414 10.6754 44.2482 10.7164 44.2619C10.8212 44.2892 10.8736 44.3667 10.8736 44.4943C10.8736 44.6538 10.7733 44.7336 10.5728 44.7336H10.525L7.10016 44.6857L7.07281 46.8049L7.81793 46.8117L10.2105 46.7707L10.7369 46.7638C10.9283 46.7638 11.0536 46.7798 11.1129 46.8117C11.1767 46.8436 11.2086 46.9074 11.2086 47.0031C11.2086 47.1808 11.0582 47.2697 10.7574 47.2697L10.2173 47.256L7.07281 47.2355ZM16.2535 44.2414L16.2261 45.6701L16.1988 47.9465L16.2056 49.6076L16.233 53.1281L16.7252 53.1349L19.6509 53.0939L20.1841 53.0871C20.453 53.0871 20.5875 53.1668 20.5875 53.3263C20.5875 53.4676 20.5145 53.5451 20.3687 53.5588C20.3368 53.5633 20.232 53.5679 20.0543 53.5724H12.0494L12.0699 50.9748L12.0836 49.382L12.0972 47.5773L12.0699 44.8293L12.0767 44.2414H16.2535ZM25.0377 43.9611C25.7577 43.9611 26.4527 44.1138 27.1226 44.4191C28.107 44.8703 28.8589 45.5653 29.3785 46.5041C29.7932 47.256 30.0005 48.0741 30.0005 48.9582C30.0005 49.6691 29.8433 50.3573 29.5289 51.0226C29.0595 52.0161 28.328 52.7704 27.3345 53.2853C26.6054 53.6636 25.8397 53.8527 25.0377 53.8527C24.19 53.8527 23.3879 53.6385 22.6314 53.2101C21.6242 52.645 20.9065 51.8521 20.4781 50.8312C20.2138 50.2069 20.0816 49.562 20.0816 48.8967C20.0816 48.0627 20.289 47.2674 20.7037 46.5109C21.2141 45.5812 21.9592 44.8862 22.939 44.4259C23.5907 44.1206 24.2903 43.9657 25.0377 43.9611ZM24.4976 44.4191L24.4566 48.8693L24.4908 52.5676L24.4976 53.4015C24.6526 53.4289 24.8007 53.4426 24.942 53.4426C25.9491 53.4426 26.8492 53.1646 27.6422 52.6086C28.3668 52.0981 28.8908 51.4419 29.2144 50.6398C29.4423 50.0793 29.5562 49.4982 29.5562 48.8967C29.5562 48.1037 29.3648 47.3654 28.982 46.6818C28.5126 45.8433 27.8518 45.2258 26.9996 44.8293C26.3616 44.5285 25.6894 44.3781 24.983 44.3781C24.8189 44.3781 24.6571 44.3918 24.4976 44.4191ZM41.5533 49.1496C42.2916 47.3859 42.8977 45.8638 43.3716 44.5832C43.4491 44.3735 43.5106 44.2437 43.5562 44.1935C43.6018 44.1388 43.6793 44.1115 43.7886 44.1115C43.8798 44.1115 43.9573 44.1343 44.0211 44.1799C44.0894 44.2254 44.1236 44.2801 44.1236 44.3439C44.1236 44.4032 43.9459 44.8361 43.5904 45.6427L43.1939 46.5314L39.7964 54.2287L38.108 51.05L36.7818 48.6847L35.7359 50.5988L34.1431 53.5861L33.815 54.2287L32.4957 50.9748L31.3336 48.1515C30.7593 46.7342 30.2056 45.4605 29.6724 44.3302L29.6314 44.2414H33.9107L34.4986 45.7453C35.1002 47.2492 35.5764 48.3771 35.9273 49.1291L37.192 46.8049L37.6568 45.9299L37.9713 45.342L38.4976 44.3576C38.5797 44.1981 38.6571 44.0545 38.73 43.9269L39.7418 45.9025C40.3251 47.019 40.9289 48.1014 41.5533 49.1496ZM48.8951 47.2355C48.886 47.4452 48.8814 47.7004 48.8814 48.0011V48.4113L48.9293 53.1281L51.2466 53.1008L52.8873 53.0802C53.1561 53.0802 53.2906 53.1623 53.2906 53.3263C53.2906 53.4631 53.2222 53.5405 53.0855 53.5588C53.0536 53.5633 52.8645 53.5679 52.5181 53.5724H44.7525L44.7593 53.217L44.7662 50.9338L44.7935 48.4865L44.7388 44.2414H51.9849C52.3085 44.2414 52.4931 44.2482 52.5386 44.2619C52.6435 44.2892 52.6959 44.3667 52.6959 44.4943C52.6959 44.6538 52.5956 44.7336 52.3951 44.7336H52.3472L48.9224 44.6857L48.8951 46.8049L49.6402 46.8117L52.0328 46.7707L52.5591 46.7638C52.7505 46.7638 52.8759 46.7798 52.9351 46.8117C52.9989 46.8436 53.0308 46.9074 53.0308 47.0031C53.0308 47.1808 52.8804 47.2697 52.5797 47.2697L52.0396 47.256L48.8951 47.2355ZM61.0836 49.7033L62.3072 47.4133C62.9133 46.2922 63.3964 45.3579 63.7564 44.6105C63.8521 44.41 63.9273 44.2778 63.982 44.214C64.0412 44.1457 64.1119 44.1115 64.1939 44.1115C64.2714 44.1115 64.3397 44.1388 64.399 44.1935C64.4582 44.2437 64.4879 44.3052 64.4879 44.3781C64.4879 44.4556 64.44 44.5786 64.3443 44.7472C64.3215 44.7883 64.2987 44.827 64.2759 44.8634C64.2304 44.9364 64.1711 45.0389 64.0982 45.1711L59.0396 54.2902L53.2017 44.2414H57.9937L61.0836 49.7033ZM69.2525 47.2355C69.2434 47.4452 69.2388 47.7004 69.2388 48.0011V48.4113L69.2867 53.1281L71.6041 53.1008L73.2447 53.0802C73.5136 53.0802 73.648 53.1623 73.648 53.3263C73.648 53.4631 73.5797 53.5405 73.4429 53.5588C73.411 53.5633 73.2219 53.5679 72.8755 53.5724H65.1099L65.1168 53.217L65.1236 50.9338L65.1509 48.4865L65.0963 44.2414H72.3423C72.6659 44.2414 72.8505 44.2482 72.8961 44.2619C73.0009 44.2892 73.0533 44.3667 73.0533 44.4943C73.0533 44.6538 72.953 44.7336 72.7525 44.7336H72.7047L69.2798 44.6857L69.2525 46.8049L69.9976 46.8117L72.3902 46.7707L72.9166 46.7638C73.108 46.7638 73.2333 46.7798 73.2925 46.8117C73.3563 46.8436 73.3882 46.9074 73.3882 47.0031C73.3882 47.1808 73.2379 47.2697 72.9371 47.2697L72.397 47.256L69.2525 47.2355ZM82.856 48.7804V47.6388L82.8423 45.8273L82.8355 45.0002L82.8287 44.4806C82.8287 44.2345 82.913 44.1115 83.0816 44.1115C83.1819 44.1115 83.2502 44.1411 83.2867 44.2004C83.3277 44.2551 83.3482 44.3621 83.3482 44.5217V44.6174C83.3436 44.7131 83.3414 44.8703 83.3414 45.089L83.314 47.3927L83.2935 49.5051L83.314 51.7267L83.3414 53.9552C82.4026 53.3674 81.0285 52.5562 79.2193 51.5217C77.4101 50.4826 75.9449 49.6668 74.8238 49.0744L74.8306 49.4093L74.899 52.9367L74.9058 53.4084C74.9058 53.6043 74.8147 53.7023 74.6324 53.7023C74.4455 53.7023 74.3521 53.5815 74.3521 53.34L74.3589 52.8615L74.3658 52.089L74.3931 48.5822L74.3384 43.8586C76.1841 45.0024 79.0233 46.6431 82.856 48.7804ZM90.9566 44.6994L90.9224 46.839L90.9019 48.8693L90.9224 53.5724H86.7525L86.7935 48.1242L86.773 46.2717L86.7525 44.6994L85.8502 44.7199L84.5582 44.7472L84.3668 44.7541C84.148 44.7541 84.0386 44.672 84.0386 44.508C84.0386 44.3621 84.1024 44.2801 84.23 44.2619C84.2665 44.2528 84.3782 44.2459 84.565 44.2414H92.9527C93.2444 44.2459 93.4175 44.2596 93.4722 44.2824C93.5634 44.3189 93.6089 44.3963 93.6089 44.5148C93.6089 44.6698 93.4927 44.7472 93.2603 44.7472L92.6656 44.7267L91.0933 44.6994H90.9566ZM93.8824 51.9865C93.9644 51.9865 94.0601 52.048 94.1695 52.1711C94.5113 52.5448 94.9283 52.8455 95.4205 53.0734C95.9172 53.2967 96.4071 53.4084 96.8902 53.4084C97.4234 53.4084 97.69 53.2466 97.69 52.923C97.69 52.7179 97.5966 52.4878 97.4097 52.2326C97.2229 51.9728 96.7763 51.4624 96.0699 50.7013C95.1812 49.7398 94.5888 49.0265 94.2925 48.5617C93.9006 47.9465 93.7047 47.3608 93.7047 46.8049C93.7047 45.9663 94.0783 45.2804 94.8257 44.7472C95.5595 44.2231 96.4641 43.9611 97.5396 43.9611C98.2916 43.9611 98.982 44.1138 99.6109 44.4191C99.8479 44.5376 100.051 44.6743 100.219 44.8293C100.392 44.9842 100.479 45.1141 100.479 45.2189C100.479 45.269 100.454 45.3169 100.404 45.3625C100.358 45.4035 100.31 45.424 100.26 45.424C100.183 45.424 100.069 45.3534 99.9185 45.2121C99.6724 44.9797 99.3489 44.7883 98.9478 44.6379C98.5468 44.4829 98.1617 44.4054 97.7925 44.4054C97.5647 44.4054 97.3778 44.4556 97.232 44.5558C97.0907 44.6515 97.0201 44.7769 97.0201 44.9318C97.0201 45.1187 97.1089 45.3465 97.2867 45.6154C97.4644 45.8843 97.7652 46.242 98.189 46.6886C99.5289 48.1151 100.349 49.0767 100.65 49.5734C100.964 50.0975 101.122 50.6034 101.122 51.091C101.122 51.5057 101.01 51.8976 100.787 52.2668C100.563 52.6359 100.253 52.939 99.857 53.1759C99.1005 53.6271 98.1776 53.8527 97.0884 53.8527C96.0858 53.8527 95.204 53.5929 94.4429 53.0734C93.9097 52.7088 93.6431 52.424 93.6431 52.2189C93.6431 52.1597 93.6659 52.1073 93.7115 52.0617C93.7616 52.0116 93.8186 51.9865 93.8824 51.9865Z" fill="#FAFAFA"/>
<path d="M52.0961 30.0782C60.3988 30.0782 67.1295 23.345 67.1295 15.0391C67.1295 6.73323 60.3988 1.43051e-06 52.0961 1.43051e-06C43.7934 1.43051e-06 37.0628 6.73323 37.0628 15.0391C37.0628 23.345 43.7934 30.0782 52.0961 30.0782Z" fill="#FAFAFA"/>
<path d="M52.0961 20.3564C55.0317 20.3564 57.4114 17.9758 57.4114 15.0391C57.4114 12.1024 55.0317 9.72177 52.0961 9.72177C49.1606 9.72177 46.7808 12.1024 46.7808 15.0391C46.7808 17.9758 49.1606 20.3564 52.0961 20.3564Z" fill="#9900FE"/>
</svg>
